<?xml version="1.0" encoding="UTF-8"?>
<svg version="1.1" xmlns="http://www.w3.org/2000/svg" width="360" height="360">
<path d="M0 0 C14.57010741 7.73068199 27.15712451 19.28597407 35.875 33.3125 C35.875 33.9725 35.875 34.6325 35.875 35.3125 C36.535 35.3125 37.195 35.3125 37.875 35.3125 C38.12121094 34.59578125 38.36742187 33.8790625 38.62109375 33.140625 C45.64138179 17.30670432 63.5294287 3.76223962 79.38842773 -2.46801758 C85.96792988 -4.90461665 92.10952639 -6.81143902 99.18359375 -6.8203125 C100.67536133 -6.82224609 100.67536133 -6.82224609 102.19726562 -6.82421875 C103.73930664 -6.81841797 103.73930664 -6.81841797 105.3125 -6.8125 C106.33666016 -6.81636719 107.36082031 -6.82023437 108.41601562 -6.82421875 C109.41181641 -6.82292969 110.40761719 -6.82164063 111.43359375 -6.8203125 C112.78408813 -6.81862061 112.78408813 -6.81862061 114.16186523 -6.81689453 C116.875 -6.6875 116.875 -6.6875 122.875 -5.6875 C122.875 32.5925 122.875 70.8725 122.875 110.3125 C110.5 110.8075 110.5 110.8075 97.875 111.3125 C77.37656095 114.98808217 56.35708346 123.54378762 42.0625 139.3125 C39.875 141.3125 39.875 141.3125 37.61328125 141.75 C33.7446322 141.13189915 31.63980109 138.89627245 28.875 136.3125 C10.92566905 120.38631506 -11.34460902 110.95023326 -35.40429688 111.3515625 C-36.54801758 111.36316406 -36.54801758 111.36316406 -37.71484375 111.375 C-38.39409912 111.38660156 -39.07335449 111.39820313 -39.77319336 111.41015625 C-42.90915905 111.27993864 -46.01787711 110.7563747 -49.125 110.3125 C-49.125 72.3625 -49.125 34.4125 -49.125 -4.6875 C-32.88592849 -10.10052384 -15.22353843 -7.03378416 0 0 Z " fill="#F69519" transform="translate(143.125,104.6875)"/>
<path d="M0 0 C1.72949453 3.45898906 1.11774913 7.45633861 1.08984375 11.26171875 C1.08415627 12.71791878 1.08415627 12.71791878 1.07835388 14.20353699 C1.00906664 27.40764009 0.78461452 40.61027152 0.5625 53.8125 C0.54014372 55.17303355 0.51785627 56.53356823 0.49563599 57.894104 C0.11843969 80.93246275 -0.37087312 103.96707834 -1 127 C-1.99 127.495 -1.99 127.495 -3 128 C-5.33315475 127.0989607 -7.59308275 126.14153658 -9.875 125.125 C-15.70753776 122.64729417 -20.82003923 121.2985333 -27.21875 121.10546875 C-30 121 -30 121 -33.33203125 120.453125 C-51.30137435 118.23327005 -72.29874245 124.90035559 -87 135 C-86.113125 134.87625 -85.22625 134.7525 -84.3125 134.625 C-83.66700195 134.53516846 -83.02150391 134.44533691 -82.35644531 134.3527832 C-80.64374441 134.09637491 -78.93507206 133.81259596 -77.22949219 133.51245117 C-69.08632375 132.12403458 -61.19118266 131.64913922 -52.9375 131.6875 C-51.03895264 131.69487183 -51.03895264 131.69487183 -49.10205078 131.70239258 C-30.62212024 131.93101753 -12.20036832 135.00734867 5.14593506 141.54699707 C5.86736568 141.81864937 6.58879631 142.09030167 7.33208847 142.37018585 C7.88249928 142.57802452 8.43291008 142.78586319 9 143 C8.97494385 141.80270767 8.9498877 140.60541534 8.92407227 139.37184143 C8.6859022 127.97466989 8.45051017 116.57744374 8.21769714 105.18016148 C8.09797949 99.32361056 7.97735192 93.46708161 7.85449219 87.6105957 C7.73550845 81.93715284 7.61911404 76.26366177 7.50436401 70.59013176 C7.46060571 68.44768386 7.41598256 66.3052534 7.37039185 64.1628437 C7.24265879 58.14530301 7.13227024 52.12790683 7.04705811 46.1096077 C7.01419464 43.93798409 6.97587619 41.76643921 6.93341064 39.59498215 C6.86880255 36.16093357 6.82485131 32.72714156 6.78515625 29.29272461 C6.76166611 28.23609147 6.73817596 27.17945833 6.713974 26.09080601 C6.64291611 16.57769072 6.64291611 16.57769072 10 13 C13.5625 12.5625 13.5625 12.5625 17 13 C19 15 19 15 19.21765423 17.2908287 C19.20236077 18.2546056 19.18706732 19.21838249 19.17131042 20.21136475 C19.15867661 21.31611145 19.14604279 22.42085815 19.13302612 23.55908203 C19.10870514 24.7767627 19.08438416 25.99444336 19.05932617 27.24902344 C19.04171738 28.52714905 19.02410858 29.80527466 19.00596619 31.12213135 C18.9572195 34.63489085 18.89577089 38.14732649 18.83186126 41.65983868 C18.76687382 45.335154 18.71265038 49.01062896 18.65705872 52.68609619 C18.56202504 58.86344872 18.45919548 65.04063253 18.35131836 71.21777344 C18.22675628 78.35325781 18.11232764 85.48884547 18.00386447 92.62459159 C17.88829868 100.22310386 17.76579387 107.82149229 17.64099717 115.41985798 C17.60550964 117.60685476 17.57125505 119.79386804 17.53725243 121.98088837 C17.47330085 126.06516482 17.40152429 130.14926776 17.32885742 134.23339844 C17.30148499 136.04777405 17.30148499 136.04777405 17.27355957 137.89880371 C17.24191963 139.57284271 17.24191963 139.57284271 17.2096405 141.28070068 C17.19321597 142.24598568 17.17679144 143.21127068 17.15986919 144.20580673 C16.98893004 147.19348079 16.54191972 150.05883335 16 153 C12.75178291 152.42944361 9.94755658 151.64592693 6.9375 150.3125 C-22.23188534 138.41903038 -56.13924576 133.87691578 -87.1328125 140.24609375 C-91.41128023 141.08017887 -95.66482478 141.58024494 -100 142 C-100.33 140.35 -100.66 138.7 -101 137 C-99.40320196 135.6578508 -97.79729803 134.32652885 -96.1875 133 C-95.29417969 132.2575 -94.40085938 131.515 -93.48046875 130.75 C-91 129 -91 129 -88 129 C-88 128.34 -88 127.68 -88 127 C-55.59166859 114.36943771 -55.59166859 114.36943771 -43 114 C-42.31131836 113.97421875 -41.62263672 113.9484375 -40.91308594 113.921875 C-38.5253832 113.84062608 -36.13871621 113.7910777 -33.75 113.75 C-33.01249512 113.7284082 -32.27499023 113.70681641 -31.51513672 113.68457031 C-26.25626508 113.65529807 -21.30926535 114.44716409 -16.17285156 115.52050781 C-15.4810379 115.66211334 -14.78922424 115.80371887 -14.07644653 115.94961548 C-12.3836462 116.29658017 -10.6917297 116.64785219 -9 117 C-9.02505615 115.81808578 -9.0501123 114.63617157 -9.07592773 113.41844177 C-9.31303519 102.2241602 -9.54846754 91.02984446 -9.78230286 79.83549404 C-9.9025427 74.08179915 -10.02335172 68.32811744 -10.14550781 62.57446289 C-10.26359838 57.0112747 -10.38013337 51.44805581 -10.49563599 45.88481331 C-10.53974171 43.7731824 -10.58438722 41.66156269 -10.62960815 39.54995537 C-10.73269579 34.72894116 -10.82865284 29.90819019 -10.90283203 25.0866394 C-10.95397167 21.86512076 -11.05195769 18.65243534 -11.20263672 15.43411255 C-11.22607651 14.74404397 -11.2495163 14.05397539 -11.27366638 13.34299564 C-11.33450053 11.55207632 -11.41799354 9.76196442 -11.50366211 7.97206116 C-10.41042508 1.52097571 -6.14201441 -0.71418772 0 0 Z " fill="#333334" transform="translate(286,110)"/>
<path d="M0 0 C6.33846334 0.59796824 6.33846334 0.59796824 8.71392822 2.04159546 C10.75698955 5.15272864 10.35098643 8.42809223 10.26464844 12.02197266 C10.25693924 12.84056763 10.24923004 13.6591626 10.24128723 14.50256348 C10.21190947 17.22346259 10.16079793 19.94349759 10.109375 22.6640625 C10.0838359 24.57284978 10.059544 26.48165412 10.03643799 28.39047241 C9.97150065 33.44132992 9.88776717 38.49171839 9.80072021 43.54223633 C9.73413763 47.58911116 9.68101223 51.63610606 9.6286087 55.68318558 C9.36299925 76.13430314 9.01466392 96.57023126 8 117 C9.0430127 116.76941895 10.08602539 116.53883789 11.16064453 116.30126953 C41.99543751 109.64951519 69.22080847 118.31957966 96 134 C97.34946106 134.9781271 98.68854525 135.97147474 100 137 C99.67 138.65 99.34 140.3 99 142 C94.58969408 141.55333185 90.23203284 141.08846434 85.87890625 140.24609375 C55.39543502 134.42050526 25.2355424 138.74647531 -3.74902344 148.98168945 C-8.18539387 150.52156588 -12.32827259 151.48979819 -17 152 C-17.95117622 148.77126813 -18.1519879 145.81877077 -18.20532227 142.45874023 C-18.22525742 141.33154068 -18.24519257 140.20434113 -18.26573181 139.04298401 C-18.29081566 137.19446083 -18.29081566 137.19446083 -18.31640625 135.30859375 C-18.33727798 134.0073204 -18.35814972 132.70604706 -18.37965393 131.36534119 C-18.43593471 127.79930689 -18.48530774 124.23320892 -18.53263092 120.66704559 C-18.56246243 118.44030472 -18.59387197 116.21359101 -18.62567139 113.98687744 C-18.94806788 91.19519871 -19.10636941 68.40413124 -19.12293625 45.61021805 C-19.1250043 43.37033997 -19.12876524 41.13046973 -19.13284302 38.89059448 C-19.13973005 34.7265213 -19.13716546 30.56251432 -19.1328125 26.3984375 C-19.13479141 25.15061996 -19.13677032 23.90280243 -19.1388092 22.61717224 C-19.13570236 21.48973099 -19.13259552 20.36228973 -19.12939453 19.20068359 C-19.12859894 18.21474213 -19.12780334 17.22880066 -19.12698364 16.21298218 C-19 14 -19 14 -18 13 C-12.6913121 12.53837497 -12.6913121 12.53837497 -10.32696533 14.11717224 C-8.38230483 16.87644612 -8.63304445 19.02092503 -8.64355469 22.37524414 C-8.64153014 23.02100183 -8.6395056 23.66675951 -8.6374197 24.33208561 C-8.63444758 26.48338889 -8.65303475 28.63394178 -8.671875 30.78515625 C-8.67464543 32.30443147 -8.67619338 33.82370936 -8.67658997 35.34298706 C-8.68169898 39.40970172 -8.70598468 43.47609464 -8.73430252 47.54270554 C-8.7551757 50.89331427 -8.76448902 54.24391344 -8.77378559 57.59457111 C-8.83254444 78.03034876 -9.02184909 98.46389219 -9.73144531 118.88891602 C-9.98106578 126.35426031 -9.99574043 133.57251399 -9 141 C-4.20291947 140.4011288 0.29108561 139.44961316 4.9375 138.125 C20.22077891 133.89713477 35.33408844 131.82062579 51.1875 131.8125 C52.42564453 131.80025391 53.66378906 131.78800781 54.93945312 131.77539062 C74.48933584 131.74466792 74.48933584 131.74466792 81 135 C82.99960012 135.039992 85.00047242 135.04346799 87 135 C74.88845703 128.55497169 74.88845703 128.55497169 62 124 C61.30132812 123.80921875 60.60265625 123.6184375 59.8828125 123.421875 C54.62026225 122.11091942 49.39721731 121.60496429 43.9921875 121.24609375 C41 121 41 121 37.66015625 120.42578125 C33.45623004 119.93674394 29.74015394 120.22356296 25.5625 120.75 C24.49418945 120.86214844 24.49418945 120.86214844 23.40429688 120.9765625 C17.2061871 121.71966013 11.97786926 123.71410191 6.25 126.1875 C4 127 4 127 0 127 C-0.01030746 125.78779282 -0.02061493 124.57558563 -0.03123474 123.3266449 C-0.12905496 111.89433149 -0.23179707 100.46207145 -0.33933926 89.02984524 C-0.39446798 83.15264657 -0.44787172 77.27544283 -0.49731445 71.39819336 C-0.54510647 65.72474511 -0.59745426 60.0513554 -0.65294075 54.37797737 C-0.6732972 52.21510339 -0.6920211 50.05221339 -0.70907402 47.88931084 C-0.73326705 44.85640566 -0.76330063 41.82360969 -0.79467773 38.79077148 C-0.80331093 37.45396332 -0.80331093 37.45396332 -0.81211853 36.09014893 C-0.86828636 31.30348875 -1.22764888 26.73729427 -2 22 C-2.18952877 18.74966119 -2.18498421 15.50543836 -2.1875 12.25 C-2.19974609 11.40050781 -2.21199219 10.55101563 -2.22460938 9.67578125 C-2.22654297 8.85980469 -2.22847656 8.04382813 -2.23046875 7.203125 C-2.23457764 6.46739258 -2.23868652 5.73166016 -2.24291992 4.97363281 C-2 3 -2 3 0 0 Z " fill="#272828" transform="translate(75,110)"/>
<path d="M0 0 C3.125 0.25 3.125 0.25 4.79803467 1.36022949 C6.75647355 4.14930013 6.49186301 6.35121009 6.48144531 9.73632812 C6.48451187 10.72067085 6.48451187 10.72067085 6.48764038 11.72489929 C6.49066187 13.91062792 6.47207147 16.0956096 6.453125 18.28125 C6.45005814 19.82979141 6.44818908 21.37833561 6.44744873 22.92687988 C6.44283079 26.19891727 6.42839214 29.47071067 6.40625 32.74267578 C6.37870882 36.82203937 6.36719855 40.90120762 6.36244106 44.98065472 C6.3255416 73.74911409 5.80204914 102.52607325 4.125 131.25 C5.775 131.25 7.425 131.25 9.125 131.25 C9.455 132.57 9.785 133.89 10.125 135.25 C2.83928571 139.82142857 2.83928571 139.82142857 -1.875 139.25 C-2.82617622 136.02126813 -3.0269879 133.06877077 -3.08032227 129.70874023 C-3.10025742 128.58154068 -3.12019257 127.45434113 -3.14073181 126.29298401 C-3.15745438 125.06063522 -3.17417694 123.82828644 -3.19140625 122.55859375 C-3.21227798 121.2573204 -3.23314972 119.95604706 -3.25465393 118.61534119 C-3.31093471 115.04930689 -3.36030774 111.48320892 -3.40763092 107.91704559 C-3.43746243 105.69030472 -3.46887197 103.46359101 -3.50067139 101.23687744 C-3.82306788 78.44519871 -3.98136941 55.65413124 -3.99793625 32.86021805 C-4.0000043 30.62033997 -4.00376524 28.38046973 -4.00784302 26.14059448 C-4.01473005 21.9765213 -4.01216546 17.81251432 -4.0078125 13.6484375 C-4.00979141 12.40061996 -4.01177032 11.15280243 -4.0138092 9.86717224 C-4.01070236 8.73973099 -4.00759552 7.61228973 -4.00439453 6.45068359 C-4.00359894 5.46474213 -4.00280334 4.47880066 -4.00198364 3.46298218 C-3.80898949 0.09961503 -3.4127031 0.29675679 0 0 Z " fill="#373739" transform="translate(59.875,122.75)"/>
<path d="M0 0 C1.72949453 3.45898906 1.11774913 7.45633861 1.08984375 11.26171875 C1.08605209 12.23251877 1.08226044 13.20331879 1.07835388 14.20353699 C1.00906664 27.40764009 0.78461452 40.61027152 0.5625 53.8125 C0.54014372 55.17303355 0.51785627 56.53356823 0.49563599 57.894104 C0.11843969 80.93246275 -0.37087312 103.96707834 -1 127 C-3 128 -3 128 -6.5625 126.9375 C-10 125 -10 125 -10.9375 121.8125 C-10.958125 120.884375 -10.97875 119.95625 -11 119 C-10.01 119 -9.02 119 -8 119 C-8.11818531 113.21576004 -8.2424294 107.43169417 -8.37231445 101.64770508 C-8.41565241 99.67964221 -8.45732832 97.71154202 -8.49731445 95.7434082 C-8.55504445 92.9160639 -8.61873116 90.08890729 -8.68359375 87.26171875 C-8.70030624 86.38037766 -8.71701874 85.49903656 -8.73423767 84.59098816 C-8.75418289 83.77036392 -8.77412811 82.94973969 -8.79467773 82.10424805 C-8.81799416 81.02169991 -8.81799416 81.02169991 -8.84178162 79.9172821 C-8.94195257 77.77891856 -8.94195257 77.77891856 -10 75 C-10.14312566 72.77357294 -10.2287633 70.54331047 -10.28466797 68.31298828 C-10.30259903 67.63783173 -10.32053009 66.96267517 -10.33900452 66.26705933 C-10.39607964 64.0349074 -10.44520902 61.80269884 -10.4921875 59.5703125 C-10.50854374 58.80702511 -10.52489998 58.04373772 -10.54175186 57.2573204 C-10.62667916 53.21868769 -10.70438002 49.17997868 -10.77734375 45.14111328 C-10.83912931 41.80013439 -10.91551837 38.45998204 -11.00488281 35.11962891 C-11.11283992 31.08342292 -11.19592428 27.04742705 -11.26114273 23.01031113 C-11.2900485 21.47357501 -11.32760047 19.93697593 -11.37401962 18.4006691 C-11.43712775 16.24871822 -11.4681722 14.09849888 -11.49169922 11.94580078 C-11.51755096 10.72240997 -11.54340271 9.49901917 -11.57003784 8.23855591 C-10.41342596 1.66749697 -6.37183998 -0.74091163 0 0 Z " fill="#343435" transform="translate(286,110)"/>
<path d="M0 0 C0.33 0 0.66 0 1 0 C1.02467332 5.80240568 1.04284724 11.60478098 1.05493164 17.40722656 C1.0599681 19.38216687 1.06679751 21.35710343 1.07543945 23.33203125 C1.08753508 26.16667605 1.0932351 29.00127166 1.09765625 31.8359375 C1.10281754 32.72243988 1.10797882 33.60894226 1.11329651 34.52230835 C1.11387171 40.77225659 1.11387171 40.77225659 0 43 C-0.66 43 -1.32 43 -2 43 C-1.67 43.99 -1.34 44.98 -1 46 C-1.68964844 45.86722656 -2.37929688 45.73445313 -3.08984375 45.59765625 C-8.29534976 44.61939243 -13.46126323 43.75472067 -18.734375 43.24609375 C-20.5829833 43.04529664 -22.4216011 42.75424903 -24.25390625 42.4375 C-42.31476371 40.32820278 -63.21014802 46.83949193 -78 57 C-77.113125 56.87625 -76.22625 56.7525 -75.3125 56.625 C-74.66700195 56.53516846 -74.02150391 56.44533691 -73.35644531 56.3527832 C-71.64374441 56.09637491 -69.93507206 55.81259596 -68.22949219 55.51245117 C-60.08632375 54.12403458 -52.19118266 53.64913922 -43.9375 53.6875 C-42.03895264 53.69487183 -42.03895264 53.69487183 -40.10205078 53.70239258 C-20.77032851 53.94155549 -2.26304124 57.70939691 16 64 C14.515 64.495 14.515 64.495 13 65 C12.67 66.65 12.34 68.3 12 70 C7.92430205 69.00177601 3.8683294 67.97759103 -0.1640625 66.81640625 C-25.36838152 59.64630966 -52.28416973 56.91974598 -78.1328125 62.24609375 C-82.41128023 63.08017887 -86.66482478 63.58024494 -91 64 C-91.33 62.35 -91.66 60.7 -92 59 C-90.40320196 57.6578508 -88.79729803 56.32652885 -87.1875 55 C-85.84751953 53.88625 -85.84751953 53.88625 -84.48046875 52.75 C-82 51 -82 51 -79 51 C-79 50.34 -79 49.68 -79 49 C-46.59166859 36.36943771 -46.59166859 36.36943771 -34 36 C-33.31131836 35.97421875 -32.62263672 35.9484375 -31.91308594 35.921875 C-29.5253832 35.84062608 -27.13871621 35.7910777 -24.75 35.75 C-24.01249512 35.7284082 -23.27499023 35.70681641 -22.51513672 35.68457031 C-14.4905288 35.63990326 -8.32392543 37.33521491 0 39 C0 26.13 0 13.26 0 0 Z " fill="#2D2D2E" transform="translate(277,188)"/>
<path d="M0 0 C6.48573314 0.61186162 6.48573314 0.61186162 8.7121582 2.29223633 C10.28820632 4.38218071 10.35143204 5.41984629 10.29296875 8.01171875 C10.28330078 8.76904297 10.27363281 9.52636719 10.26367188 10.30664062 C10.23853516 11.09232422 10.21339844 11.87800781 10.1875 12.6875 C10.17396484 13.48478516 10.16042969 14.28207031 10.14648438 15.10351562 C10.11117089 17.06929967 10.05736447 19.03473582 10 21 C9.34 21 8.68 21 8 21 C8.00222061 21.59355789 8.00444122 22.18711578 8.00672913 22.79866028 C8.12093155 54.88267675 7.95757092 86.9290143 7 119 C7.99 119.33 8.98 119.66 10 120 C9.8125 122.375 9.8125 122.375 9 125 C5.72271751 126.86007925 3.8340246 127 0 127 C-0.01030746 125.78779282 -0.02061493 124.57558563 -0.03123474 123.3266449 C-0.12905496 111.89433149 -0.23179707 100.46207145 -0.33933926 89.02984524 C-0.39446798 83.15264657 -0.44787172 77.27544283 -0.49731445 71.39819336 C-0.54510647 65.72474511 -0.59745426 60.0513554 -0.65294075 54.37797737 C-0.6732972 52.21510339 -0.6920211 50.05221339 -0.70907402 47.88931084 C-0.73326705 44.85640566 -0.76330063 41.82360969 -0.79467773 38.79077148 C-0.8004332 37.89956604 -0.80618866 37.0083606 -0.81211853 36.09014893 C-0.86828636 31.30348875 -1.22764888 26.73729427 -2 22 C-2.18952877 18.74966119 -2.18498421 15.50543836 -2.1875 12.25 C-2.19974609 11.40050781 -2.21199219 10.55101563 -2.22460938 9.67578125 C-2.22654297 8.85980469 -2.22847656 8.04382813 -2.23046875 7.203125 C-2.23457764 6.46739258 -2.23868652 5.73166016 -2.24291992 4.97363281 C-2 3 -2 3 0 0 Z " fill="#39393B" transform="translate(75,110)"/>
<path d="M0 0 C0.33 0 0.66 0 1 0 C1.02467332 5.80240568 1.04284724 11.60478098 1.05493164 17.40722656 C1.0599681 19.38216687 1.06679751 21.35710343 1.07543945 23.33203125 C1.08753508 26.16667605 1.0932351 29.00127166 1.09765625 31.8359375 C1.10281754 32.72243988 1.10797882 33.60894226 1.11329651 34.52230835 C1.11387171 40.77225659 1.11387171 40.77225659 0 43 C-0.66 43 -1.32 43 -2 43 C-1.67 43.99 -1.34 44.98 -1 46 C-1.68964844 45.86722656 -2.37929688 45.73445313 -3.08984375 45.59765625 C-8.29534976 44.61939243 -13.46126323 43.75472067 -18.734375 43.24609375 C-20.57567747 43.04609021 -22.40654095 42.75168685 -24.23046875 42.4296875 C-28.50360661 41.94259407 -32.31070068 42.1846089 -36.5625 42.6875 C-37.34246338 42.77491455 -38.12242676 42.8623291 -38.92602539 42.95239258 C-45.2989637 43.74454225 -51.17461664 45.27300176 -57.27734375 47.29296875 C-60 48 -60 48 -63 47 C-62.67 46.67 -62.34 46.34 -62 46 C-67.46704927 46.90184955 -71.71462317 49.2316425 -76.5625 51.8125 C-77.41263672 52.25142578 -78.26277344 52.69035156 -79.13867188 53.14257812 C-83.3173783 55.34827963 -86.90843334 57.32608837 -90 61 C-89.34 61.33 -88.68 61.66 -88 62 C-88.99 62.66 -89.98 63.32 -91 64 C-91.33 62.35 -91.66 60.7 -92 59 C-90.40320196 57.6578508 -88.79729803 56.32652885 -87.1875 55 C-85.84751953 53.88625 -85.84751953 53.88625 -84.48046875 52.75 C-82 51 -82 51 -79 51 C-79 50.34 -79 49.68 -79 49 C-46.59166859 36.36943771 -46.59166859 36.36943771 -34 36 C-33.31131836 35.97421875 -32.62263672 35.9484375 -31.91308594 35.921875 C-29.5253832 35.84062608 -27.13871621 35.7910777 -24.75 35.75 C-24.01249512 35.7284082 -23.27499023 35.70681641 -22.51513672 35.68457031 C-14.4905288 35.63990326 -8.32392543 37.33521491 0 39 C0 26.13 0 13.26 0 0 Z " fill="#242425" transform="translate(277,188)"/>
<path d="M0 0 C3.8926446 0.60521993 6.89711738 1.79062488 10.37890625 3.6171875 C11.38244141 4.14183594 12.38597656 4.66648438 13.41992188 5.20703125 C14.45697266 5.75746094 15.49402344 6.30789062 16.5625 6.875 C17.60341797 7.41769531 18.64433594 7.96039063 19.71679688 8.51953125 C24.03803855 10.7926989 28.15754765 12.96710507 32 16 C31.505 18.475 31.505 18.475 31 21 C25.29118499 20.44076914 19.72651161 19.61634832 14.09399414 18.54003906 C2.04294744 16.2516954 -9.74714037 15.252897 -22 15 C-21.67 14.01 -21.34 13.02 -21 12 C-16.64589022 11.9416279 -12.29188207 11.90627827 -7.9375 11.875 C-6.70837891 11.85824219 -5.47925781 11.84148437 -4.21289062 11.82421875 C2.0012311 11.79071944 7.11743561 12.05699434 13 14 C16.29219428 14.16847091 16.29219428 14.16847091 19 14 C17.87980469 13.44570312 16.75960937 12.89140625 15.60546875 12.3203125 C14.13275962 11.58864809 12.66010628 10.85687139 11.1875 10.125 C10.44951172 9.76019531 9.71152344 9.39539063 8.95117188 9.01953125 C8.23896484 8.66503906 7.52675781 8.31054688 6.79296875 7.9453125 C6.1383667 7.62062988 5.48376465 7.29594727 4.80932617 6.96142578 C3 6 3 6 0 4 C0.99 4 1.98 4 3 4 C2.01 2.68 1.02 1.36 0 0 Z " fill="#232122" transform="translate(143,231)"/>
<path d="M0 0 C-0.99 0.495 -0.99 0.495 -2 1 C-2 1.66 -2 2.32 -2 3 C-2.99902344 3.49371094 -3.99804688 3.98742187 -5.02734375 4.49609375 C-6.3307814 5.14312395 -7.63416398 5.79026511 -8.9375 6.4375 C-9.59685547 6.76298828 -10.25621094 7.08847656 -10.93554688 7.42382812 C-14.18290035 8.89111346 -14.18290035 8.89111346 -17 11 C-12.3264782 10.37500615 -12.3264782 10.37500615 -7.70239258 9.47094727 C-4.41097658 8.8973506 -1.29036247 8.88812612 2.05078125 8.90234375 C2.70958786 8.9037587 3.36839447 8.90517365 4.04716492 8.90663147 C6.13565762 8.912195 8.22404011 8.92474053 10.3125 8.9375 C11.73502449 8.94251972 13.15755066 8.9470818 14.58007812 8.95117188 C18.05342077 8.96215243 21.52669961 8.97939165 25 9 C24.67 9.99 24.34 10.98 24 12 C23.45400146 12.0093457 22.90800293 12.01869141 22.34545898 12.02832031 C8.40880273 12.32376642 -4.85950923 13.92550661 -18.53808594 16.55859375 C-22.01358922 17.18173039 -25.49170152 17.60562453 -29 18 C-29 15 -29 15 -28 12 C-25.50180324 10.40221338 -23.04293059 8.96218872 -20.4375 7.5625 C-19.74591797 7.18029297 -19.05433594 6.79808594 -18.34179688 6.40429688 C-16.23805829 5.24949536 -14.11986796 4.12485767 -12 3 C-11.28344238 2.60022949 -10.56688477 2.20045898 -9.82861328 1.78857422 C-9.13364746 1.41361816 -8.43868164 1.03866211 -7.72265625 0.65234375 C-7.10269775 0.31066162 -6.48273926 -0.03102051 -5.84399414 -0.38305664 C-3.54577726 -1.15196887 -2.25881868 -0.77103757 0 0 Z " fill="#3A3A3A" transform="translate(216,234)"/>
<path d="M0 0 C0 0.33 0 0.66 0 1 C-6.27 1.33 -12.54 1.66 -19 2 C-19.33 2.66 -19.66 3.32 -20 4 C-13.07 4 -6.14 4 1 4 C1 4.33 1 4.66 1 5 C0.42258057 5.01981934 -0.15483887 5.03963867 -0.74975586 5.06005859 C-11.42981789 5.44296267 -22.0315628 5.9204763 -32.63061523 7.33935547 C-36.11699193 7.80455745 -39.48155786 8.10129872 -43 8 C-43.33 6.68 -43.66 5.36 -44 4 C-45.32 3.67 -46.64 3.34 -48 3 C-32.00091813 -0.34725499 -16.29596349 -0.32864959 0 0 Z " fill="#252525" transform="translate(141,242)"/>
<path d="M0 0 C35.56945984 -1.28702677 35.56945984 -1.28702677 48 7 C47.67 7.66 47.34 8.32 47 9 C46.05640625 8.80664062 45.1128125 8.61328125 44.140625 8.4140625 C40.74537425 7.72546747 37.34812897 7.0499266 33.94824219 6.38476562 C32.32028545 6.06325437 30.69494191 5.72854792 29.0703125 5.390625 C19.15548431 3.49387526 9.06449884 3.34792956 -1 3 C-0.67 2.01 -0.34 1.02 0 0 Z " fill="#333534" transform="translate(122,243)"/>
<path d="M0 0 C31.526794 -0.41277905 31.526794 -0.41277905 44 2 C43.0409375 2.680625 43.0409375 2.680625 42.0625 3.375 C39.90297594 4.83921726 39.90297594 4.83921726 39 7 C39.99 7.33 40.98 7.66 42 8 C40.3749437 7.85479535 38.74995883 7.70879131 37.125 7.5625 C36.22007812 7.48128906 35.31515625 7.40007812 34.3828125 7.31640625 C32.51899292 7.14207671 30.65553636 6.96274729 28.79443359 6.76147461 C22.32605152 6.07133343 15.87361761 5.70212996 9.375 5.4375 C8.37082031 5.39431641 7.36664063 5.35113281 6.33203125 5.30664062 C3.88811617 5.20190141 1.44412383 5.09972744 -1 5 C-1 4.67 -1 4.34 -1 4 C9.395 3.505 9.395 3.505 20 3 C20 2.67 20 2.34 20 2 C13.4 1.67 6.8 1.34 0 1 C0 0.67 0 0.34 0 0 Z " fill="#1A1A1A" transform="translate(219,242)"/>
<path d="M0 0 C0.33 0 0.66 0 1 0 C1.02467332 5.80240568 1.04284724 11.60478098 1.05493164 17.40722656 C1.0599681 19.38216687 1.06679751 21.35710343 1.07543945 23.33203125 C1.08753508 26.16667605 1.0932351 29.00127166 1.09765625 31.8359375 C1.10281754 32.72243988 1.10797882 33.60894226 1.11329651 34.52230835 C1.11387171 40.77225659 1.11387171 40.77225659 0 43 C-0.66 43 -1.32 43 -2 43 C-1.67 43.99 -1.34 44.98 -1 46 C-4.63 45.34 -8.26 44.68 -12 44 C-12 43.34 -12 42.68 -12 42 C-11.0409375 41.8453125 -11.0409375 41.8453125 -10.0625 41.6875 C-9.0415625 41.3471875 -9.0415625 41.3471875 -8 41 C-7.67 40.01 -7.34 39.02 -7 38 C-4.69 38.33 -2.38 38.66 0 39 C0 26.13 0 13.26 0 0 Z " fill="#1C1C1D" transform="translate(277,188)"/>
<path d="M0 0 C2.24993359 -0.02707139 4.49996095 -0.04642829 6.75 -0.0625 C8.00296875 -0.07410156 9.2559375 -0.08570313 10.546875 -0.09765625 C13.28536501 -0.02021027 15.41880293 0.17219185 18 1 C18 1.99 18 2.98 18 4 C13.64940776 6.48042815 9.90311231 6.4403486 5 6 C1.4375 5 1.4375 5 -1 4 C-0.67 2.68 -0.34 1.36 0 0 Z " fill="#3C3C3E" transform="translate(251,225)"/>
<path d="M0 0 C4.875 3.75 4.875 3.75 6 6 C6.66 6 7.32 6 8 6 C8.33 5.34 8.66 4.68 9 4 C9.66 4 10.32 4 11 4 C11.12375 4.556875 11.2475 5.11375 11.375 5.6875 C12.07075684 8.2618003 12.83185296 10.59880886 14 13 C14.99 13.33 15.98 13.66 17 14 C17 14.66 17 15.32 17 16 C17.99 15.67 18.98 15.34 20 15 C20.4640625 14.0409375 20.4640625 14.0409375 20.9375 13.0625 C22.24676963 10.5209766 23.45467308 10.14950248 26 9 C26.33 8.34 26.66 7.68 27 7 C29.5625 6.375 29.5625 6.375 32 6 C30.83397983 7.16602017 29.66647114 8.33058354 28.4921875 9.48828125 C27.47103284 10.52280181 26.47699976 11.58461022 25.5078125 12.66796875 C25.01023438 13.21066406 24.51265625 13.75335938 24 14.3125 C23.54625 14.82425781 23.0925 15.33601562 22.625 15.86328125 C21 17 21 17 18.71484375 17.49609375 C14.76520709 16.77436158 12.42911318 14.38527247 9.5625 11.75 C5.53799067 8.13789622 1.57471644 4.89801041 -3 2 C-2.01 1.34 -1.02 0.68 0 0 Z " fill="#EA952A" transform="translate(162,229)"/>
<path d="M0 0 C9.57 0 19.14 0 29 0 C29 0.33 29 0.66 29 1 C22.73 1.33 16.46 1.66 10 2 C9.67 2.66 9.34 3.32 9 4 C15.93 4 22.86 4 30 4 C30 4.33 30 4.66 30 5 C19.77 5 9.54 5 -1 5 C-0.67 3.35 -0.34 1.7 0 0 Z " fill="#1B1B1B" transform="translate(112,242)"/>
<path d="M0 0 C1.53333984 0.00676758 1.53333984 0.00676758 3.09765625 0.01367188 C5.60683194 0.025397 8.1158849 0.04180824 10.625 0.0625 C10.295 1.0525 9.965 2.0425 9.625 3.0625 C0.385 3.3925 -8.855 3.7225 -18.375 4.0625 C-18.045 3.0725 -17.715 2.0825 -17.375 1.0625 C-11.58854356 -0.19156138 -5.88631884 -0.04936913 0 0 Z " fill="#3F3F3F" transform="translate(230.375,242.9375)"/>
<path d="M0 0 C5.12583611 -0.10251672 9.94997778 -0.03590199 15 1 C14.360625 1.45375 13.72125 1.9075 13.0625 2.375 C10.90297594 3.83921726 10.90297594 3.83921726 10 6 C10.99 6.33 11.98 6.66 13 7 C5.99564408 6.3741355 -1.00399099 5.71325905 -8 5 C-8 4.67 -8 4.34 -8 4 C-5.36 3.67 -2.72 3.34 0 3 C0 2.01 0 1.02 0 0 Z " fill="#202021" transform="translate(248,243)"/>
<path d="M0 0 C3.0833134 -0.02911321 6.16659125 -0.04683682 9.25 -0.0625 C10.12269531 -0.07087891 10.99539062 -0.07925781 11.89453125 -0.08789062 C12.73886719 -0.09111328 13.58320313 -0.09433594 14.453125 -0.09765625 C15.22817383 -0.10289307 16.00322266 -0.10812988 16.80175781 -0.11352539 C18.99283598 -0.00036998 20.89637861 0.39447552 23 1 C23 1.99 23 2.98 23 4 C15.08 3.67 7.16 3.34 -1 3 C-0.67 2.01 -0.34 1.02 0 0 Z " fill="#3E3E3E" transform="translate(122,243)"/>
<path d="M0 0 C-0.59425781 0.27674561 -1.18851563 0.55349121 -1.80078125 0.83862305 C-4.53636795 2.11627605 -7.26817373 3.40182742 -10 4.6875 C-10.93457031 5.12255859 -11.86914062 5.55761719 -12.83203125 6.00585938 C-22.71046652 9.97167109 -22.71046652 9.97167109 -30 17 C-29.34 17.33 -28.68 17.66 -28 18 C-28.99 18.66 -29.98 19.32 -31 20 C-31.33 18.35 -31.66 16.7 -32 15 C-30.40320196 13.6578508 -28.79729803 12.32652885 -27.1875 11 C-25.84751953 9.88625 -25.84751953 9.88625 -24.48046875 8.75 C-22 7 -22 7 -19 7 C-19 6.34 -19 5.68 -19 5 C-16.39985473 3.96772138 -13.79573631 2.94894848 -11.1875 1.9375 C-10.08051758 1.49567383 -10.08051758 1.49567383 -8.95117188 1.04492188 C-3.33984375 -1.11328125 -3.33984375 -1.11328125 0 0 Z " fill="#050506" transform="translate(217,232)"/>
<path d="M0 0 C0.33 0 0.66 0 1 0 C1.33 3.3 1.66 6.6 2 10 C4.97 10 7.94 10 11 10 C10.67 10.99 10.34 11.98 10 13 C10.66 13 11.32 13 12 13 C12 13.66 12 14.32 12 15 C11.34 15 10.68 15 10 15 C10 15.66 10 16.32 10 17 C8.02 17.33 6.04 17.66 4 18 C4.66 17.67 5.32 17.34 6 17 C5.67 15.68 5.34 14.36 5 13 C3.35 13 1.7 13 0 13 C0 8.71 0 4.42 0 0 Z " fill="#313132" transform="translate(64,241)"/>
<path d="M0 0 C0.66 0.33 1.32 0.66 2 1 C2 2.32 2 3.64 2 5 C-0.475 4.505 -0.475 4.505 -3 4 C-3 4.66 -3 5.32 -3 6 C-4.32 6 -5.64 6 -7 6 C-7.226875 6.639375 -7.45375 7.27875 -7.6875 7.9375 C-9 10 -9 10 -11.625 10.75 C-12.40875 10.8325 -13.1925 10.915 -14 11 C-14 11.99 -14 12.98 -14 14 C-15.65 14.33 -17.3 14.66 -19 15 C-15.74251939 10.34045944 -11.95869085 7.69162696 -7.25 4.6875 C-6.55261719 4.23310547 -5.85523438 3.77871094 -5.13671875 3.31054688 C-3.42931442 2.19956461 -1.71530989 1.09873705 0 0 Z " fill="#E89733" transform="translate(216,105)"/>
<path d="M0 0 C1.88428711 0.08507812 1.88428711 0.08507812 3.80664062 0.171875 C6.8925585 0.31267734 9.97757958 0.4640255 13.0625 0.625 C13.0625 0.955 13.0625 1.285 13.0625 1.625 C-3.2725 2.12 -3.2725 2.12 -19.9375 2.625 C-20.2675 3.615 -20.5975 4.605 -20.9375 5.625 C-23.2475 5.955 -25.5575 6.285 -27.9375 6.625 C-27.9375 5.965 -27.9375 5.305 -27.9375 4.625 C-25.9575 4.625 -23.9775 4.625 -21.9375 4.625 C-21.6075 3.635 -21.2775 2.645 -20.9375 1.625 C-14.269242 -1.37523219 -7.1399197 -0.37440586 0 0 Z " fill="#EB9727" transform="translate(251.9375,212.375)"/>
<path d="M0 0 C0.99 0.99 1.98 1.98 3 3 C2.01 3.495 2.01 3.495 1 4 C0.34786708 6.02463255 0.34786708 6.02463255 0 8 C-0.99 7.67 -1.98 7.34 -3 7 C-3.28875 7.61875 -3.5775 8.2375 -3.875 8.875 C-5 11 -5 11 -7 13 C-9.125 13.625 -9.125 13.625 -11 14 C-9.42219077 10.28954753 -7.09296752 7.70093616 -4.375 4.75 C-3.55773437 3.85796875 -2.74046875 2.9659375 -1.8984375 2.046875 C-1.27195313 1.37140625 -0.64546875 0.6959375 0 0 Z " fill="#EF9826" transform="translate(196,120)"/>
<path d="M0 0 C2 1 2 1 2 1 Z M-1 1 C-0.2265625 1.433125 -0.2265625 1.433125 0.5625 1.875 C3.62356725 3.28780027 6.74944918 4.1248517 10 5 C10 5.66 10 6.32 10 7 C8.52031676 6.85950482 7.04125484 6.71245174 5.5625 6.5625 C4.73878906 6.48128906 3.91507813 6.40007812 3.06640625 6.31640625 C1 6 1 6 0 5 C-1.70563778 4.84259395 -3.41727244 4.74906608 -5.12890625 4.68359375 C-6.16337891 4.64169922 -7.19785156 4.59980469 -8.26367188 4.55664062 C-9.35228516 4.51732422 -10.44089844 4.47800781 -11.5625 4.4375 C-12.65498047 4.39431641 -13.74746094 4.35113281 -14.87304688 4.30664062 C-17.58189564 4.20017932 -20.29083992 4.09816484 -23 4 C-23 3.67 -23 3.34 -23 3 C-22.36908447 2.97494385 -21.73816895 2.9498877 -21.08813477 2.92407227 C-18.24603175 2.80845863 -15.40428917 2.68557684 -12.5625 2.5625 C-11.56927734 2.52318359 -10.57605469 2.48386719 -9.55273438 2.44335938 C-8.60849609 2.40146484 -7.66425781 2.35957031 -6.69140625 2.31640625 C-5.81685791 2.27974854 -4.94230957 2.24309082 -4.04125977 2.20532227 C-2.0072598 2.21818934 -2.0072598 2.21818934 -1 1 Z " fill="#EB972B" transform="translate(118,210)"/>
<path d="M0 0 C0 0.33 0 0.66 0 1 C-1.98 1.33 -3.96 1.66 -6 2 C-6 2.99 -6 3.98 -6 5 C-9.63 5.33 -13.26 5.66 -17 6 C-17 5.01 -17 4.02 -17 3 C-11.10261508 0.70657253 -6.33393082 -0.34548714 0 0 Z " fill="#313131" transform="translate(219,243)"/>
<path d="M0 0 C2.5625 0.125 2.5625 0.125 4.5625 1.125 C6.22869446 1.1646713 7.89641013 1.16884447 9.5625 1.125 C7.04867788 2.80088141 4.73302712 4.06530311 2 5.3125 C1.21496094 5.67730469 0.42992187 6.04210937 -0.37890625 6.41796875 C-1.05824219 6.65128906 -1.73757812 6.88460937 -2.4375 7.125 C-3.0975 6.795 -3.7575 6.465 -4.4375 6.125 C-3.36915229 0.17277704 -3.36915229 0.17277704 0 0 Z " fill="#EB972A" transform="translate(214.4375,217.875)"/>
<path d="M0 0 C5.78898419 -0.20674944 10.42932723 0.40837921 16 2 C15.01 3.65 14.02 5.3 13 7 C6.07 6.505 6.07 6.505 -1 6 C-1 5.67 -1 5.34 -1 5 C-0.04287109 4.90912109 -0.04287109 4.90912109 0.93359375 4.81640625 C2.17302734 4.69072266 2.17302734 4.69072266 3.4375 4.5625 C4.26121094 4.48128906 5.08492188 4.40007812 5.93359375 4.31640625 C7.98662025 4.21069185 7.98662025 4.21069185 9 3 C4.545 2.01 4.545 2.01 0 1 C0 0.67 0 0.34 0 0 Z " fill="#171717" transform="translate(117,225)"/>
<path d="M0 0 C-1 2 -1 2 -3.6171875 2.88671875 C-4.69226563 3.15097656 -5.76734375 3.41523438 -6.875 3.6875 C-7.94492188 3.95949219 -9.01484375 4.23148438 -10.1171875 4.51171875 C-13 5 -13 5 -16 4 C-13.58069291 1.58069291 -11.84292782 1.20557796 -8.5625 0.3125 C-7.11037109 -0.09548828 -7.11037109 -0.09548828 -5.62890625 -0.51171875 C-3 -1 -3 -1 0 0 Z " fill="#3B3B3C" transform="translate(203,247)"/>
<path d="M0 0 C0.66 0.33 1.32 0.66 2 1 C1.28972656 1.63808594 0.57945312 2.27617187 -0.15234375 2.93359375 C-1.07144531 3.75988281 -1.99054688 4.58617187 -2.9375 5.4375 C-4.31228516 6.67306641 -4.31228516 6.67306641 -5.71484375 7.93359375 C-7.38334356 9.43953939 -7.38334356 9.43953939 -9 11 C-11.375 11.25 -11.375 11.25 -14 11 C-15.8125 9.5 -15.8125 9.5 -17 8 C-15.68 8 -14.36 8 -13 8 C-13 8.66 -13 9.32 -13 10 C-12.01 9.67 -11.02 9.34 -10 9 C-9.690625 8.360625 -9.38125 7.72125 -9.0625 7.0625 C-7.75323037 4.5209766 -6.54532692 4.14950248 -4 3 C-3.67 2.34 -3.34 1.68 -3 1 C-2.01 0.67 -1.02 0.34 0 0 Z " fill="#CC8D36" transform="translate(192,235)"/>
<path d="M0 0 C4.455 0.99 4.455 0.99 9 2 C8.01 2.33 7.02 2.66 6 3 C5.67 4.65 5.34 6.3 5 8 C2.03 7.505 2.03 7.505 -1 7 C-0.01 6.67 0.98 6.34 2 6 C1.34 4.02 0.68 2.04 0 0 Z " fill="#262627" transform="translate(284,250)"/>
<path d="M0 0 C3.3 0.33 6.6 0.66 10 1 C9.67 2.32 9.34 3.64 9 5 C6.36 4.67 3.72 4.34 1 4 C0.67 2.68 0.34 1.36 0 0 Z " fill="#3E3E40" transform="translate(257,245)"/>
<path d="M0 0 C0.66 0.33 1.32 0.66 2 1 C-1.28466137 4.67882073 -4.66360908 6.75150101 -9 9 C-9.66 9 -10.32 9 -11 9 C-9.73948004 5.21844011 -8.43553394 4.74381633 -5.0625 2.75 C-4.16660156 2.20859375 -3.27070313 1.6671875 -2.34765625 1.109375 C-1.57292969 0.74328125 -0.79820312 0.3771875 0 0 Z " fill="#3F3E3E" transform="translate(198,240)"/>
<path d="M0 0 C4.51617599 -0.07654536 8.59085217 -0.10228696 13 1 C11.02 1.99 11.02 1.99 9 3 C9.66 3.66 10.32 4.32 11 5 C9.02 5 7.04 5 5 5 C4.67 3.68 4.34 2.36 4 1 C2.68 0.67 1.36 0.34 0 0 Z " fill="#191919" transform="translate(141,243)"/>
<path d="M0 0 C3.63 0 7.26 0 11 0 C11 0.66 11 1.32 11 2 C6.73383684 3.13764351 3.43513689 4 -1 4 C-0.67 2.68 -0.34 1.36 0 0 Z " fill="#3F3F41" transform="translate(251,225)"/>
<path d="M0 0 C3.84783484 3.06077771 7.14732623 5.94042579 10 10 C10 10.66 10 11.32 10 12 C7.83125748 11.49396008 6.00032373 11.00016187 4 10 C3.29373761 8.01363702 2.63106429 6.01151741 2 4 C1.36184656 2.65278717 0.70674629 1.31252882 0 0 Z " fill="#E39937" transform="translate(165,122)"/>
<path d="M0 0 C2 1.375 2 1.375 4 3 C4 3.66 4 4.32 4 5 C1.69 5.33 -0.62 5.66 -3 6 C-2.625 3.5625 -2.625 3.5625 -2 1 C-1.34 0.67 -0.68 0.34 0 0 Z " fill="#313131" transform="translate(61,256)"/>
<path d="M0 0 C-0.33 1.65 -0.66 3.3 -1 5 C-3.31 5.33 -5.62 5.66 -8 6 C-7.8125 4.125 -7.8125 4.125 -7 2 C-4.55683729 0.74709605 -2.75474605 0 0 0 Z " fill="#363937" transform="translate(222,230)"/>
<path d="M0 0 C1.32 0 2.64 0 4 0 C4 0.99 4 1.98 4 3 C3.01 3.495 3.01 3.495 2 4 C4.31 4.33 6.62 4.66 9 5 C9 5.33 9 5.66 9 6 C6.03 6 3.06 6 0 6 C-0.38218767 4.34385343 -0.71395102 2.67542976 -1 1 C-0.67 0.67 -0.34 0.34 0 0 Z " fill="#292929" transform="translate(95,225)"/>
<path d="M0 0 C0.66 0.33 1.32 0.66 2 1 C2 1.99 2 2.98 2 4 C-4.96428571 6.27678571 -4.96428571 6.27678571 -9 5 C-7.54735962 4.1361871 -6.0876837 3.28419546 -4.625 2.4375 C-3.40683594 1.72400391 -3.40683594 1.72400391 -2.1640625 0.99609375 C-1.44992188 0.66738281 -0.73578125 0.33867187 0 0 Z " fill="#010000" transform="translate(198,243)"/>
<path d="M0 0 C3.68754757 0.49831724 5.60490662 1.10067643 8 4 C7.67 4.99 7.34 5.98 7 7 C4.69 6.34 2.38 5.68 0 5 C0.99 4.67 1.98 4.34 3 4 C2.01 2.68 1.02 1.36 0 0 Z " fill="#21201E" transform="translate(143,231)"/>
<path d="M0 0 C-0.66 1.32 -1.32 2.64 -2 4 C-4.9375 3.625 -4.9375 3.625 -8 3 C-8.33 2.34 -8.66 1.68 -9 1 C-6.04335481 -0.4783226 -3.25770263 -0.06032783 0 0 Z " fill="#3F3F3F" transform="translate(243,226)"/>
<path d="M0 0 C0 0.33 0 0.66 0 1 C-1.98 1.33 -3.96 1.66 -6 2 C-6 2.99 -6 3.98 -6 5 C-7.65 5 -9.3 5 -11 5 C-10.34 4.34 -9.68 3.68 -9 3 C-10.32 2.34 -11.64 1.68 -13 1 C-8.59085217 -0.10228696 -4.51617599 -0.07654536 0 0 Z " fill="#0D0D0D" transform="translate(219,243)"/>
<path d="M0 0 C2.97 0.33 5.94 0.66 9 1 C9 1.99 9 2.98 9 4 C8.01 4.33 7.02 4.66 6 5 C5.566875 4.54625 5.13375 4.0925 4.6875 3.625 C2.89201658 1.79975666 2.89201658 1.79975666 0 0 Z " fill="#313232" transform="translate(147,235)"/>
<path d="M0 0 C1.38157895 4.14473684 1.38157895 4.14473684 0 7 C-3.0625 8.25 -3.0625 8.25 -6 9 C-4.47291037 5.56404834 -2.40072955 2.88087546 0 0 Z " fill="#E59933" transform="translate(191,125)"/>
<path d="M0 0 C3.24299151 2.38957269 5.50902342 4.2047869 7 8 C3.4213696 6.34832443 0.25179812 4.21713508 -3 2 C-2.01 1.34 -1.02 0.68 0 0 Z " fill="#E39837" transform="translate(162,229)"/>
<path d="M0 0 C0.33 0 0.66 0 1 0 C1.02578125 0.69867188 1.0515625 1.39734375 1.078125 2.1171875 C1.13484375 3.02726563 1.1915625 3.93734375 1.25 4.875 C1.29640625 5.77992188 1.3428125 6.68484375 1.390625 7.6171875 C1.75611148 10.17110544 1.75611148 10.17110544 4.046875 11.3203125 C4.69140625 11.54460937 5.3359375 11.76890625 6 12 C4.02 12.33 2.04 12.66 0 13 C0 8.71 0 4.42 0 0 Z " fill="#000001" transform="translate(64,241)"/>
<path d="M0 0 C1.32 0.33 2.64 0.66 4 1 C4 3 4 5 4 7 C1.03 6.505 1.03 6.505 -2 6 C-1.34 5.67 -0.68 5.34 0 5 C0 3.35 0 1.7 0 0 Z " fill="#232325" transform="translate(273,247)"/>
<path d="M0 0 C-1.98 0.99 -1.98 0.99 -4 2 C-3.67 2.99 -3.34 3.98 -3 5 C-3.66 5 -4.32 5 -5 5 C-5 3.68 -5 2.36 -5 1 C-6.65 1.33 -8.3 1.66 -10 2 C-6.80505194 -1.19494806 -4.22040044 -1.35655728 0 0 Z " fill="#181717" transform="translate(227,229)"/>
<path d="M0 0 C0 0.99 0 1.98 0 3 C1.65 3 3.3 3 5 3 C5 3.33 5 3.66 5 4 C-2.75 4.125 -2.75 4.125 -5 3 C-5 2.34 -5 1.68 -5 1 C-3 0 -3 0 0 0 Z " fill="#232324" transform="translate(259,227)"/>
<path d="M0 0 C3.59391114 1.33488128 6.75490696 2.96022723 10 5 C8 6 8 6 6.0546875 5.44140625 C5.33539063 5.15136719 4.61609375 4.86132812 3.875 4.5625 C3.15054688 4.27503906 2.42609375 3.98757812 1.6796875 3.69140625 C0.84824219 3.34916016 0.84824219 3.34916016 0 3 C0 2.01 0 1.02 0 0 Z " fill="#E19839" transform="translate(140,104)"/>
<path d="M0 0 C1.32 0.66 2.64 1.32 4 2 C3.67 2.66 3.34 3.32 3 4 C3.66 4.33 4.32 4.66 5 5 C3.68 5.33 2.36 5.66 1 6 C0.34 4.35 -0.32 2.7 -1 1 C-0.67 0.67 -0.34 0.34 0 0 Z " fill="#3E3E40" transform="translate(276,248)"/>
<path d="M0 0 C1.98 0 3.96 0 6 0 C3.60490662 2.89932357 1.68754757 3.50168276 -2 4 C-1.34 2.68 -0.68 1.36 0 0 Z " fill="#262526" transform="translate(201,239)"/>
</svg>
